<?xml version="1.0" encoding="UTF-8"?>
<svg version="1.1" xmlns="http://www.w3.org/2000/svg" width="779" height="238">
<path d="M0 0 C3.20822172 1.41392648 5.35250059 3.10493631 7.82183838 5.58132935 C8.56778259 6.32452423 9.31372681 7.06771912 10.08227539 7.83343506 C10.89075928 8.6491095 11.69924316 9.46478394 12.53222656 10.30517578 C13.82057404 11.59308517 13.82057404 11.59308517 15.13494873 12.90701294 C17.48539336 15.25861144 19.83131459 17.61455732 22.17533588 19.97254801 C24.627448 22.43716991 27.08523207 24.89612225 29.54241943 27.35568237 C34.1928819 32.01235887 38.83822297 36.67410974 43.48174453 41.33770645 C48.76919919 46.64752248 54.06233984 51.9516548 59.35596514 57.25531793 C70.24364811 68.16390116 81.12417051 79.07959806 92 90 C87.42894581 95.48332769 82.57405459 100.56298829 77.51611328 105.59741211 C76.68618362 106.42748779 75.85625397 107.25756348 75.00117493 108.11279297 C72.27658621 110.83668894 69.54848005 113.55703263 66.8203125 116.27734375 C64.92294801 118.17284179 63.02578166 120.06853607 61.12887573 121.9644928 C56.65804566 126.43222586 52.18467466 130.89740564 47.71036518 135.36165386 C42.61280773 140.44799929 37.51811981 145.53721486 32.42366052 150.62666309 C21.95227742 161.08761876 11.47732907 171.54499952 1 182 C-4.44923017 177.45561817 -9.50183857 172.63534863 -14.50561523 167.60791016 C-15.32593735 166.78773407 -16.14625946 165.96755798 -16.99143982 165.12252808 C-19.6828703 162.43040493 -22.37074847 159.73476475 -25.05859375 157.0390625 C-26.93167153 155.16411824 -28.80494556 153.28937215 -30.67848206 151.41488647 C-35.09309132 146.99718043 -39.50514725 142.57693357 -43.91627127 138.15574777 C-48.94215801 133.11864834 -53.97091548 128.08441902 -58.99990547 123.05041814 C-69.33644733 112.70344935 -79.66941416 102.35291534 -90 92 C-88.58607352 88.79177828 -86.89506369 86.64749941 -84.41867065 84.17816162 C-83.67547577 83.43221741 -82.93228088 82.68627319 -82.16656494 81.91772461 C-81.3508905 81.10924072 -80.53521606 80.30075684 -79.69482422 79.46777344 C-78.40691483 78.17942596 -78.40691483 78.17942596 -77.09298706 76.86505127 C-74.74138856 74.51460664 -72.38544268 72.16868541 -70.02745199 69.82466412 C-67.56283009 67.372552 -65.10387775 64.91476793 -62.64431763 62.45758057 C-57.98764113 57.8071181 -53.32589026 53.16177703 -48.66229355 48.51825547 C-43.35247752 43.23080081 -38.0483452 37.93766016 -32.74468207 32.64403486 C-21.83609884 21.75635189 -10.92040194 10.87582949 0 0 Z M-1.26311588 18.14006805 C-2.06922385 18.94755871 -2.06922385 18.94755871 -2.89161682 19.7713623 C-3.50722473 20.38559555 -4.12283264 20.9998288 -4.75709534 21.63267517 C-5.43610397 22.31527908 -6.11511261 22.997883 -6.81469727 23.70117188 C-7.52685394 24.41318253 -8.23901062 25.12519318 -8.9727478 25.85877991 C-11.33967688 28.22640887 -13.70303856 30.59756648 -16.06640625 32.96875 C-17.70143762 34.60564529 -19.33668908 36.24232077 -20.97215271 37.87878418 C-25.28653984 42.19699861 -29.59791623 46.51820709 -33.90869141 50.84002686 C-38.3038642 55.24540922 -42.70185157 59.64797969 -47.09960938 64.05078125 C-55.73584408 72.69775702 -64.36890364 81.34789553 -73 90 C-71.69316301 92.88330643 -70.30277863 94.94564108 -68.0640564 97.17645264 C-67.46390213 97.77935623 -66.86374786 98.38225983 -66.2454071 99.00343323 C-65.58869522 99.65295456 -64.93198334 100.30247589 -64.25537109 100.97167969 C-63.56257553 101.6647673 -62.86977997 102.35785492 -62.1559906 103.07194519 C-59.86651526 105.36002799 -57.5700387 107.64094651 -55.2734375 109.921875 C-53.68402291 111.5075592 -52.09504952 113.09368574 -50.50650024 114.68023682 C-46.32532415 118.85377854 -42.13817654 123.02127917 -37.94976807 127.18756104 C-33.67643937 131.44042719 -29.40877027 135.69896419 -25.140625 139.95703125 C-16.76595419 148.31025559 -8.38496557 156.65711048 0 165 C4.87976751 160.93445329 9.46855256 156.67173724 13.94506836 152.16845703 C14.59957977 151.51409164 15.25409119 150.85972626 15.92843628 150.18553162 C18.06795414 148.04532311 20.20391876 145.90160617 22.33984375 143.7578125 C23.83177655 142.26401251 25.32393186 140.77043472 26.81629944 139.27706909 C30.72618949 135.36337761 34.63306594 131.44669135 38.53930664 127.52935791 C42.53284006 123.52555912 46.52923809 119.52462187 50.52539062 115.5234375 C58.35305485 107.68507787 66.17753599 99.84354907 74 92 C72.69396403 89.11994436 71.30443592 87.05485968 69.07078552 84.82354736 C68.47207642 84.22064377 67.87336731 83.61774017 67.2565155 82.99656677 C66.60137466 82.34704544 65.94623383 81.69752411 65.27124023 81.02832031 C64.58005096 80.3352327 63.88886169 79.64214508 63.17672729 78.92805481 C60.89220611 76.63983051 58.60056738 74.35888273 56.30859375 72.078125 C54.72164587 70.49236901 53.13506723 68.90624342 51.54884338 67.31976318 C48.22550734 63.99799107 44.89883788 60.67960632 41.56958008 57.36376953 C37.29129586 53.10250956 33.01965878 48.83466155 28.75025845 44.56450272 C25.47617495 41.29069039 22.19949757 38.019485 18.92192268 34.7491684 C17.34517154 33.17561003 15.76903469 31.60143589 14.19351006 30.02664948 C11.9979707 27.83326528 9.7991784 25.64319827 7.59936523 23.45410156 C6.94220016 22.79648331 6.2850351 22.13886505 5.60795593 21.46131897 C2.53562444 17.33831359 2.53562444 17.33831359 -1.26311588 18.14006805 Z " fill="#792F93" transform="translate(106,29)"/>
<path d="M0 0 C4.95 0 9.9 0 15 0 C15 8.58 15 17.16 15 26 C18.96 26 22.92 26 27 26 C27 17.42 27 8.84 27 0 C31.95 0 36.9 0 42 0 C42 8.58 42 17.16 42 26 C45.96 26 49.92 26 54 26 C54 17.42 54 8.84 54 0 C58.95 0 63.9 0 69 0 C69 22.44 69 44.88 69 68 C64.05 68 59.1 68 54 68 C54 59.42 54 50.84 54 42 C50.04 42 46.08 42 42 42 C42 50.58 42 59.16 42 68 C37.05 68 32.1 68 27 68 C27 59.42 27 50.84 27 42 C23.04 42 19.08 42 15 42 C15 50.58 15 59.16 15 68 C10.05 68 5.1 68 0 68 C0 45.56 0 23.12 0 0 Z " fill="#762E8F" transform="translate(72,86)"/>
<path d="M0 0 C7.92 0 15.84 0 24 0 C25.2922815 3.60902761 26.58420591 7.21817961 27.87503052 10.82772827 C28.33216558 12.10594909 28.78942001 13.38412722 29.24679565 14.66226196 C32.52665855 23.83004515 35.77446768 33.00822297 38.92993164 42.21972656 C39.9671735 45.89215863 39.9671735 45.89215863 42 49 C47.61 32.83 53.22 16.66 59 0 C66.92 0 74.84 0 83 0 C82.67 1.65 82.34 3.3 82 5 C80.35 5 78.7 5 77 5 C77 23.81 77 42.62 77 62 C79.31 62.33 81.62 62.66 84 63 C84.5625 64.9375 84.5625 64.9375 85 67 C84 68 84 68 81.40795898 68.11352539 C80.28204346 68.10828857 79.15612793 68.10305176 77.99609375 68.09765625 C76.17368164 68.09282227 76.17368164 68.09282227 74.31445312 68.08789062 C73.03505859 68.07951172 71.75566406 68.07113281 70.4375 68.0625 C69.15423828 68.05798828 67.87097656 68.05347656 66.54882812 68.04882812 C63.36583978 68.03699545 60.18294238 68.02051068 57 68 C57 66.35 57 64.7 57 63 C58.98 62.34 60.96 61.68 63 61 C63 45.49 63 29.98 63 14 C61.71222656 17.65835938 60.42445313 21.31671875 59.09765625 25.0859375 C57.85358545 28.61729824 56.60906579 32.14850049 55.36450195 35.6796875 C54.49782065 38.13948276 53.63160825 40.59944328 52.76586914 43.05957031 C51.52352294 46.58962556 50.27950798 50.11908879 49.03515625 53.6484375 C48.64658951 54.75367767 48.25802277 55.85891785 47.85768127 56.99765015 C47.49738327 58.01855743 47.13708527 59.03946472 46.76586914 60.09130859 C46.44832169 60.99287689 46.13077423 61.89444519 45.80360413 62.82333374 C45 65 45 65 44 67 C40.7 67 37.4 67 34 67 C25 41.5 25 41.5 16 16 C14.24187349 17.75812651 14.86972541 20.24081877 14.8671875 22.625 C14.86525391 23.7996582 14.86332031 24.97431641 14.86132812 26.18457031 C14.86583984 27.44366211 14.87035156 28.70275391 14.875 30 C14.87790039 31.90023926 14.87790039 31.90023926 14.88085938 33.83886719 C14.92404963 43.2567429 15.24905472 52.61318405 16 62 C17.65 62.33 19.3 62.66 21 63 C21 64.65 21 66.3 21 68 C13.41 68 5.82 68 -2 68 C-1.67 66.35 -1.34 64.7 -1 63 C1.475 62.505 1.475 62.505 4 62 C5.26349434 56.16781504 5.12647609 50.41063768 5.09765625 44.4765625 C5.09553383 42.82459366 5.09553383 42.82459366 5.09336853 41.13925171 C5.08778752 37.63447308 5.07523846 34.1297592 5.0625 30.625 C5.05748255 28.24349051 5.05292007 25.86198001 5.04882812 23.48046875 C5.03782431 17.65362388 5.02110507 11.82681657 5 6 C3.35 5.67 1.7 5.34 0 5 C0 3.35 0 1.7 0 0 Z " fill="#010101" transform="translate(240,45)"/>
<path d="M0 0 C0 1.65 0 3.3 0 5 C-2.31 5.66 -4.62 6.32 -7 7 C-6.690625 7.515625 -6.38125 8.03125 -6.0625 8.5625 C-3.5830487 14.25065299 -3.66409978 19.06710078 -5.78515625 24.78515625 C-8.4449442 29.63435165 -12.79523359 32.84512236 -17.625 35.375 C-24.1225649 37.0848855 -30.31911227 37.10698931 -37 37 C-37.99 39.31 -38.98 41.62 -40 44 C-39.50757813 43.84015625 -39.01515625 43.6803125 -38.5078125 43.515625 C-28.67499489 41.49392418 -15.74167083 41.71362904 -7.1015625 47.20703125 C-3.77369938 49.79276527 -2.29729167 51.80853567 -1.7265625 56.015625 C-1.50156605 60.96554689 -1.94111117 64.45115041 -5.10546875 68.36328125 C-14.43940327 76.42703086 -25.26921821 77.72877839 -37.04248047 77.18359375 C-42.97496536 76.62719207 -47.47943985 74.21024175 -52.0625 70.5625 C-54.17454311 67.76915266 -55 66.49365268 -55 63 C-53.75 59.25 -53.75 59.25 -52 56 C-49 55 -49 55 -46.4375 56.0625 C-43.41537051 58.46470549 -43.13168786 60.37859885 -42 64 C-38.89813316 67.21675079 -35.32335841 68.16322095 -31 69 C-25.67990292 69.00831265 -19.99483201 68.86167094 -16 65 C-15.25 62 -15.25 62 -16 59 C-19.01674073 55.98325927 -21.89250243 55.0467763 -26.14453125 54.8671875 C-27.35496094 54.86976562 -28.56539062 54.87234375 -29.8125 54.875 C-31.01519531 54.87242188 -32.21789062 54.86984375 -33.45703125 54.8671875 C-36.97106688 54.89062893 -36.97106688 54.89062893 -40.20703125 55.72265625 C-43 56 -43 56 -45.1171875 54.56640625 C-45.69726562 53.90511719 -46.27734375 53.24382812 -46.875 52.5625 C-47.47054687 51.90378906 -48.06609375 51.24507812 -48.6796875 50.56640625 C-49.11539063 50.04949219 -49.55109375 49.53257813 -50 49 C-49.37603297 47.27046032 -48.75077872 45.541385 -48.125 43.8125 C-47.77695312 42.84957031 -47.42890625 41.88664062 -47.0703125 40.89453125 C-46.09009512 38.24365141 -45.06279566 35.6186902 -44 33 C-44.5775 32.773125 -45.155 32.54625 -45.75 32.3125 C-49.56083774 30.08951132 -51.61929664 27.14211008 -53 23 C-53.63235807 17.16364601 -53.39681929 12.00294752 -50.4765625 6.82421875 C-38.81523662 -7.58276323 -15.99752237 -1.7546874 0 0 Z M-38 9 C-40.51996397 13.2563349 -40.68760551 17.16160512 -40 22 C-38.38970649 25.16307654 -36.97868759 27.19607805 -34.25 29.4375 C-29.38100223 30.65474944 -25.33094698 29.78120801 -21.125 27.3125 C-18.1763024 24.1036232 -17.03776393 21.40272982 -16.96875 17.01171875 C-17.32795299 12.24329911 -18.53422059 9.46577941 -22 6 C-27.67019795 3.16490102 -33.80839041 4.42733499 -38 9 Z " fill="#010101" transform="translate(666,62)"/>
<path d="M0 0 C-0.00222061 0.84746796 -0.00444122 1.69493591 -0.00672913 2.56808472 C-0.02674261 10.54361043 -0.04197955 18.51912775 -0.05181217 26.49467278 C-0.05703709 30.59525496 -0.06412768 34.69581645 -0.07543945 38.79638672 C-0.08628218 42.75154957 -0.09227979 46.70669248 -0.09487724 50.66186905 C-0.09672898 52.17298827 -0.10034482 53.68410637 -0.10573006 55.19521713 C-0.11295886 57.30708958 -0.11399016 59.41887895 -0.11352539 61.53076172 C-0.115746 62.73433319 -0.11796661 63.93790466 -0.12025452 65.177948 C-0.1946679 67.95127165 -0.1946679 67.95127165 1 70 C3.02463255 70.65213292 3.02463255 70.65213292 5 71 C5 72.65 5 74.3 5 76 C-0.94 76 -6.88 76 -13 76 C-13.33 74.02 -13.66 72.04 -14 70 C-15.299375 71.175625 -15.299375 71.175625 -16.625 72.375 C-21.14865646 76.07808622 -25.03796385 77.23202935 -30.875 76.9375 C-37.59654481 76.06693847 -42.13988998 73.30066239 -46.375 68.0625 C-50.77054305 59.77859195 -51.4144868 50.93501161 -49.2421875 41.8203125 C-46.47316327 33.7748799 -42.46605875 28.20519119 -35 24 C-30.32851825 22.0579983 -26.11906987 21.74918041 -21.125 21.875 C-20.09246094 21.88853516 -20.09246094 21.88853516 -19.0390625 21.90234375 C-17.35922162 21.92567487 -15.67956254 21.96153674 -14 22 C-14 17.38 -14 12.76 -14 8 C-16.31 7.67 -18.62 7.34 -21 7 C-20.67 5.35 -20.34 3.7 -20 2 C-18.16824992 1.65807332 -16.33448463 1.32693786 -14.5 1 C-13.4790625 0.814375 -12.458125 0.62875 -11.40625 0.4375 C-7.54562121 -0.05836058 -3.89094667 -0.02809348 0 0 Z M-33.75 33.75 C-37.49762653 40.49572776 -38.01466074 47.99803964 -36.5 55.46484375 C-35.05614991 60.39526366 -33.38568962 64.04442656 -29 67 C-25.84200319 67.6947593 -23.15804476 67.69350892 -20 67 C-15.35926457 63.9390894 -14.44374114 60.76613783 -13.3815918 55.62329102 C-12.69461428 50.90059529 -12.79306462 46.19920592 -12.875 41.4375 C-12.88402344 40.42880859 -12.89304687 39.42011719 -12.90234375 38.38085938 C-12.92566644 35.92031543 -12.95839237 33.46029104 -13 31 C-20.75394546 28.26651642 -27.49153555 27.49153555 -33.75 33.75 Z " fill="#000000" transform="translate(606,37)"/>
<path d="M0 0 C7.36891101 -0.07587179 14.73772186 -0.12852436 22.10693359 -0.16479492 C24.61543542 -0.1799103 27.12391072 -0.20040298 29.63232422 -0.22631836 C33.23151182 -0.26258042 36.830351 -0.27969874 40.4296875 -0.29296875 C41.55680145 -0.30845261 42.68391541 -0.32393646 43.84518433 -0.33988953 C44.88611237 -0.34011612 45.92704041 -0.34034271 46.99951172 -0.34057617 C47.91884491 -0.34723801 48.8381781 -0.35389984 49.78536987 -0.36076355 C50.51619781 -0.24171158 51.24702576 -0.12265961 52 0 C54.09715785 3.14573677 54.52004559 5.01456251 55.125 8.6875 C55.37636719 10.17830078 55.37636719 10.17830078 55.6328125 11.69921875 C55.75398437 12.45847656 55.87515625 13.21773437 56 14 C54.35 14.33 52.7 14.66 51 15 C50.34 13.35 49.68 11.7 49 10 C42.5989702 9.17968639 36.38568604 8.8729896 29.9375 8.9375 C26.988125 8.958125 24.03875 8.97875 21 9 C20.67 14.94 20.34 20.88 20 27 C30.395 26.505 30.395 26.505 41 26 C41.33 24.68 41.66 23.36 42 22 C43.65 22 45.3 22 47 22 C47 27.61 47 33.22 47 39 C44.525 39.495 44.525 39.495 42 40 C41.6596875 39.0409375 41.6596875 39.0409375 41.3125 38.0625 C40.19725845 35.80515064 40.19725845 35.80515064 37.90625 35.40625 C34.34087802 34.90786467 30.77864145 34.64735917 27.1875 34.4375 C24.815625 34.293125 22.44375 34.14875 20 34 C20.33 42.25 20.66 50.5 21 59 C36.52601574 59.11604772 36.52601574 59.11604772 52 58 C52.28875 57.21625 52.5775 56.4325 52.875 55.625 C54 53 54 53 56 51 C56.99 51.66 57.98 52.32 59 53 C58.69147815 54.958964 58.3780582 56.91715713 58.0625 58.875 C57.88847656 59.96554688 57.71445312 61.05609375 57.53515625 62.1796875 C57 65 57 65 56 67 C37.52 67.33 19.04 67.66 0 68 C0 66.35 0 64.7 0 63 C2.475 62.505 2.475 62.505 5 62 C6.05416106 53.62527601 6.15341776 45.32156938 6.13037109 36.89624023 C6.12501895 34.57073422 6.13034012 32.24542198 6.13671875 29.91992188 C6.13992954 21.89327279 5.95654826 13.98249324 5 6 C3.35 5.67 1.7 5.34 0 5 C0 3.35 0 1.7 0 0 Z " fill="#000000" transform="translate(492,45)"/>
<path d="M0 0 C0 13.53 0 27.06 0 41 C7.10454653 34.6096434 7.10454653 34.6096434 14 28 C13.34 27.67 12.68 27.34 12 27 C12 25.68 12 24.36 12 23 C18.93 23 25.86 23 33 23 C33 24.32 33 25.64 33 27 C32.00613281 27.36738281 31.01226562 27.73476562 29.98828125 28.11328125 C25.43990314 30.06160438 21.94147563 33.01623104 18.1875 36.1875 C16.87205348 37.28942476 15.55320702 38.38730765 14.23046875 39.48046875 C13.37038208 40.20592896 13.37038208 40.20592896 12.49291992 40.94604492 C11 42 11 42 9 42 C11.92773974 46.96442826 15.57483937 50.6801389 19.69140625 54.6953125 C21.81148927 56.81180824 23.79447535 58.9821049 25.75 61.25 C30.78377625 67.83565831 30.78377625 67.83565831 38 71 C38 72.65 38 74.3 38 76 C25.11488639 78.82883839 25.11488639 78.82883839 20.20947266 75.94873047 C16.75576858 72.99862681 14.02698521 69.4530531 11.34179688 65.80859375 C10.0454044 64.06120011 8.69355726 62.3866129 7.296875 60.71875 C5.72756617 58.8434753 4.17443644 56.95443246 2.64453125 55.046875 C1.16181243 53.12569477 1.16181243 53.12569477 0 52 C-0.02707139 54.24993359 -0.04642829 56.49996095 -0.0625 58.75 C-0.07410156 60.00296875 -0.08570313 61.2559375 -0.09765625 62.546875 C-0.02021027 65.28536501 0.17219185 67.41880293 1 70 C2.32 70.33 3.64 70.66 5 71 C5 72.65 5 74.3 5 76 C-3.25 76 -11.5 76 -20 76 C-20 74.35 -20 72.7 -20 71 C-17.03 70.505 -17.03 70.505 -14 70 C-14 49.54 -14 29.08 -14 8 C-16.31 7.67 -18.62 7.34 -21 7 C-20.67 5.35 -20.34 3.7 -20 2 C-18.16824992 1.65807332 -16.33448463 1.32693786 -14.5 1 C-12.96859375 0.7215625 -12.96859375 0.7215625 -11.40625 0.4375 C-8 0 -8 0 0 0 Z " fill="#000000" transform="translate(452,37)"/>
<path d="M0 0 C0.99 0.66 1.98 1.32 3 2 C2.73958333 4.05078125 2.47916667 6.1015625 2.21875 8.15234375 C1.98040465 9.85541732 1.98040465 9.85541732 2 11 C1.34 11.33 0.68 11.66 0 12 C-0.42871399 12.8847702 -0.42871399 12.8847702 -0.86608887 13.78741455 C-2.25581587 16.49917005 -3.99012804 18.24437121 -6.14257812 20.40136719 C-6.99686401 21.2619574 -7.8511499 22.12254761 -8.73132324 23.00921631 C-9.65529907 23.92914368 -10.5792749 24.84907104 -11.53125 25.796875 C-12.48796371 26.75493637 -13.4443804 27.71329443 -14.4005127 28.67193604 C-16.40130563 30.67567264 -18.40565949 32.67575889 -20.41259766 34.67333984 C-22.98862107 37.2379383 -25.55552099 39.81145211 -28.11985016 42.38773727 C-30.0910246 44.36612446 -32.06691997 46.339741 -34.04429626 48.3119278 C-35.45512771 49.7207719 -36.86192389 51.13365318 -38.26867676 52.54656982 C-39.12296265 53.39455139 -39.97724854 54.24253296 -40.85742188 55.11621094 C-41.61083862 55.8680365 -42.36425537 56.61986206 -43.14050293 57.39447021 C-45 59 -45 59 -47 59 C-47.31976807 59.80872559 -47.31976807 59.80872559 -47.64599609 60.63378906 C-49.49498827 63.86502458 -52.02795629 66.27398693 -54.6640625 68.859375 C-55.21613373 69.40861633 -55.76820496 69.95785767 -56.33700562 70.52374268 C-58.09501815 72.27059293 -59.8598689 74.01034601 -61.625 75.75 C-62.8207708 76.93573591 -64.01608865 78.1219288 -65.2109375 79.30859375 C-68.13540253 82.21105085 -71.06601874 85.1071641 -74 88 C-72.60761596 91.15018412 -70.98756811 93.24504884 -68.53173828 95.64770508 C-67.47021042 96.69448174 -67.47021042 96.69448174 -66.38723755 97.7624054 C-65.62265228 98.50725693 -64.85806702 99.25210846 -64.0703125 100.01953125 C-62.45430532 101.61511106 -60.83842384 103.21081819 -59.22265625 104.80664062 C-56.67523065 107.31063584 -54.12539532 109.81211304 -51.57275391 112.31079102 C-49.10708173 114.72800904 -46.65082722 117.15450171 -44.1953125 119.58203125 C-43.4347757 120.32081009 -42.67423889 121.05958893 -41.89065552 121.820755 C-36.53968859 127.12164413 -31.94326525 132.21806166 -31 140 C-31.99 140.66 -32.98 141.32 -34 142 C-35.5625 140.75 -35.5625 140.75 -37 139 C-36.6875 136.8125 -36.6875 136.8125 -36 135 C-36.66 135 -37.32 135 -38 135 C-38.33 136.32 -38.66 137.64 -39 139 C-55.17 122.83 -71.34 106.66 -88 90 C-86.26701319 86.53402638 -85.13597142 84.88776159 -82.49459839 82.25408936 C-81.76823181 81.52497345 -81.04186523 80.79585754 -80.29348755 80.04464722 C-79.49651459 79.25486481 -78.69954163 78.4650824 -77.87841797 77.65136719 C-76.61976929 76.39228043 -76.61976929 76.39228043 -75.33569336 75.10775757 C-73.03782233 72.81104028 -70.73557743 70.51881904 -68.43131018 68.2285223 C-66.02274213 65.83246532 -63.61984484 63.43073512 -61.21633911 61.02960205 C-56.66591044 56.48538703 -52.11040801 51.9462939 -47.55305874 47.40902066 C-42.36415889 42.24248334 -37.18094375 37.07025899 -31.99819732 31.89755011 C-21.33844297 21.25869517 -10.67157395 10.62699993 0 0 Z " fill="#782F92" transform="translate(106,31)"/>
<path d="M0 0 C2.05078125 1.1171875 2.05078125 1.1171875 3.875 2.3125 C4.44605469 2.68632813 5.01710938 3.06015625 5.60546875 3.4453125 C10.54654474 7.12976917 13.73948753 12.25289606 14.875 18.3125 C15.63786083 27.57581007 15.62228389 35.58189648 9.875 43.3125 C4.82207742 48.95352995 -1.55707451 52.38958226 -9.125 53.3125 C-17.65378319 53.73893916 -25.33199022 52.8978636 -32.125 47.3125 C-38.6921909 40.98674995 -41.23145613 35.03586713 -41.5625 25.9375 C-41.35440427 17.39566587 -38.86106098 10.67338191 -33.125 4.3125 C-23.61514903 -2.66845748 -11.04567865 -4.52630677 0 0 Z M-25.125 11.3125 C-28.8144158 18.08737029 -29.25396629 26.15776242 -27.62109375 33.61328125 C-25.81015018 39.10820147 -22.83819877 42.69924668 -17.8125 45.6875 C-12.79792363 46.85368055 -8.68672493 46.28423995 -4.3125 43.5625 C1.83268051 37.2417429 2.22696699 31.14294617 2.16015625 22.6484375 C1.65460035 16.73412604 -0.443184 12.35106485 -4.1875 7.8125 C-7.74511891 5.05821439 -11.4237557 4.84322078 -15.7734375 4.9140625 C-20.04494431 5.63780618 -22.54881867 7.93344373 -25.125 11.3125 Z " fill="#010101" transform="translate(363.125,60.6875)"/>
<path d="M0 0 C3.94070736 3.14525135 7.08047771 6.53440187 8.68359375 11.34375 C8.68359375 14.64375 8.68359375 17.94375 8.68359375 21.34375 C-3.19640625 21.34375 -15.07640625 21.34375 -27.31640625 21.34375 C-25.72506232 32.18198245 -25.72506232 32.18198245 -19.484375 40.625 C-14.83615448 42.16603167 -10.12054975 42.06708403 -5.31640625 41.34375 C-2.67927176 40.00375847 -0.53947498 38.52626078 1.74609375 36.65625 C3.68359375 35.34375 3.68359375 35.34375 7.68359375 35.34375 C8.34359375 36.66375 9.00359375 37.98375 9.68359375 39.34375 C4.01655455 45.85521557 -2.70898666 50.63274164 -11.31640625 52.34375 C-19.56939932 52.91292194 -27.03341729 51.50431022 -33.69140625 46.34375 C-39.51250448 40.73475656 -41.479221 33.57817252 -41.75390625 25.65625 C-41.41964579 17.56484163 -38.4731501 10.58342141 -32.75 4.74609375 C-23.94486132 -3.27111306 -10.84039698 -6.52755087 0 0 Z M-23.31640625 7.34375 C-25.50342987 10.33268229 -26.31640625 11.62319454 -26.31640625 15.34375 C-19.05640625 15.01375 -11.79640625 14.68375 -4.31640625 14.34375 C-4.7020764 7.93828507 -4.7020764 7.93828507 -6.609375 5.46484375 C-12.36450509 1.68515877 -18.4238121 2.9171172 -23.31640625 7.34375 Z " fill="#010101" transform="translate(706.31640625,61.65625)"/>
<path d="M0 0 C2.88763504 1.3900933 4.97709387 2.72509957 7.25219727 4.9934082 C8.16818443 5.89993889 8.16818443 5.89993889 9.10267639 6.82478333 C9.75070724 7.47686264 10.3987381 8.12894196 11.06640625 8.80078125 C12.07936012 9.81086494 12.07936012 9.81086494 13.11277771 10.84135437 C14.53817662 12.2653938 15.961059 13.69195601 17.3815918 15.12084961 C19.55104349 17.30098706 21.73092124 19.47028385 23.91210938 21.63867188 C25.29751656 23.02540102 26.68230301 24.41275063 28.06640625 25.80078125 C29.04148888 26.76979118 29.04148888 26.76979118 30.03627014 27.75837708 C36.13277377 33.91814645 36.13277377 33.91814645 38 38 C37.625 41.6875 37.625 41.6875 37 45 C37.33 45.66 37.66 46.32 38 47 C31.46077256 46.1020075 26.61254036 42.0951525 22.4140625 37.12109375 C21.22330369 35.45042306 20.10776902 33.72681641 19 32 C18.38125 31.2575 17.7625 30.515 17.125 29.75 C16.75375 29.1725 16.3825 28.595 16 28 C16.495 26.515 16.495 26.515 17 25 C16.278125 25.20625 15.55625 25.4125 14.8125 25.625 C11.34165262 26.08777965 10.07059961 25.68151884 7 24 C4.69 22.02 2.38 20.04 0 18 C-23.76 41.76 -47.52 65.52 -72 90 C-70.3817894 93.23642119 -69.51715315 94.73201227 -67.10202026 97.13848877 C-66.51028015 97.73297821 -65.91854004 98.32746765 -65.30886841 98.93997192 C-64.66150726 99.58014252 -64.01414612 100.22031311 -63.34716797 100.87988281 C-62.66412598 101.56321686 -61.98108398 102.2465509 -61.27734375 102.95059204 C-59.02033362 105.20620976 -56.7563237 107.45466222 -54.4921875 109.703125 C-52.92519314 111.26638892 -51.35864001 112.83009523 -49.79251099 114.39422607 C-45.67051858 118.50858445 -41.54255516 122.6169012 -37.41333008 126.72399902 C-33.20032416 130.91654166 -28.99297842 135.11475588 -24.78515625 139.3125 C-16.5289751 147.54723528 -8.26647643 155.77560065 0 164 C4.82531295 159.97120459 9.3892798 155.76343113 13.83740234 151.32373047 C14.48055389 150.68554382 15.12370544 150.04735718 15.78634644 149.38983154 C17.88895841 147.30169284 19.98777538 145.20979681 22.0859375 143.1171875 C22.80641895 142.39953342 23.52690041 141.68187935 24.26921463 140.94247818 C28.07264398 137.15397149 31.87324091 133.36265109 35.67138672 129.56884766 C39.59557633 125.65017099 43.52897733 121.74087685 47.46455956 117.83364677 C50.49266948 114.82412585 53.51408433 111.80795171 56.53367996 108.78989029 C57.98170717 107.34489231 59.43223814 105.90239887 60.88529587 104.46245956 C62.91030574 102.45445129 64.92569821 100.43725299 66.93896484 98.41748047 C67.541521 97.8241391 68.14407715 97.23079773 68.76489258 96.61947632 C71.54143908 93.81463999 73.27462665 91.88745611 74 88 C74.66 88.66 75.32 89.32 76 90 C74.67958555 92.92257439 73.25571935 94.99258209 70.98812866 97.25238037 C70.0626548 98.18197823 70.0626548 98.18197823 69.1184845 99.13035583 C68.44307114 99.79857864 67.76765778 100.46680145 67.07177734 101.15527344 C66.35947464 101.86786819 65.64717194 102.58046295 64.9132843 103.31465149 C62.5588785 105.66766451 60.19746875 108.0135151 57.8359375 110.359375 C56.20168245 111.98989975 54.56786854 113.62086676 52.93447876 115.2522583 C48.63493527 119.54416676 44.32941935 123.83003514 40.02264404 128.11468506 C35.62866977 132.48819822 31.24035397 136.86738079 26.8515625 141.24609375 C18.23991236 149.83629625 9.62194389 158.4201302 1 167 C-3.93805184 162.85881237 -8.58627298 158.55359152 -13.12866211 153.98486328 C-13.80268066 153.31099075 -14.47669922 152.63711823 -15.17114258 151.94282532 C-17.37559126 149.7376857 -19.57648684 147.52903641 -21.77734375 145.3203125 C-23.3141171 143.78167206 -24.85111288 142.24325375 -26.38832092 140.70504761 C-30.41657796 136.67298834 -34.4418217 132.63793405 -38.46643066 128.60223389 C-42.58061116 124.47778978 -46.69765465 120.35620569 -50.81445312 116.234375 C-58.87909568 108.15903561 -66.94055557 100.08052706 -75 92 C-73.17150962 88.04420326 -70.59415626 85.33775228 -67.51171875 82.31640625 C-66.97150589 81.77902328 -66.43129303 81.24164032 -65.87471008 80.68797302 C-64.15029294 78.97471454 -62.41906371 77.26853224 -60.6875 75.5625 C-59.53404448 74.41908438 -58.38104477 73.27520875 -57.22851562 72.13085938 C-55.09876287 70.01739279 -52.96635165 67.90668926 -50.83081055 65.79907227 C-49.12710743 64.11447061 -47.42715601 62.42604477 -45.73461914 60.73022461 C-42.52335099 57.52411696 -39.28911614 54.34185499 -36.05560303 51.15820312 C-32.76895386 47.91790557 -29.48965266 44.67023737 -26.21279526 41.42004395 C-23.72877378 38.95697379 -21.24110607 36.49782165 -18.74511719 34.046875 C-15.8554422 31.20898466 -12.98210777 28.35503988 -10.109375 25.5 C-9.21152283 24.62279297 -8.31367065 23.74558594 -7.38861084 22.84179688 C-6.56395325 22.01744141 -5.73929565 21.19308594 -4.88964844 20.34375 C-3.79641266 19.26383789 -3.79641266 19.26383789 -2.68109131 18.16210938 C-0.78139333 15.71884244 -0.48853219 14.01067623 0 11 C0.66 10.34 1.32 9.68 2 9 C2.16687448 6.41645782 2.16687448 6.41645782 2 4 C-0.96928422 3.6914069 -0.96928422 3.6914069 -2.71223736 5.34309387 C-3.65937965 6.29438423 -3.65937965 6.29438423 -4.62565613 7.26489258 C-5.35339737 7.98850983 -6.08113861 8.71212708 -6.83093262 9.45767212 C-7.6243103 10.26183563 -8.41768799 11.06599915 -9.23510742 11.89453125 C-10.07435257 12.73333832 -10.91359772 13.57214539 -11.77827454 14.43637085 C-14.08101821 16.74084925 -16.3769588 19.05185913 -18.67008376 21.36590195 C-21.06704332 23.78158628 -23.47247322 26.18880533 -25.87702942 28.59692383 C-30.43037389 33.15960113 -34.9760157 37.72987345 -39.5189603 42.30290318 C-44.69076964 47.50821804 -49.87107687 52.70504008 -55.05212629 57.90115547 C-65.71092081 68.59132705 -76.35896121 79.29215197 -87 90 C-85.6059562 93.1427172 -83.976709 95.27431536 -81.55274963 97.70121765 C-80.48232422 98.78010254 -80.48232422 98.78010254 -79.39027405 99.88078308 C-78.21591042 101.04907402 -78.21591042 101.04907402 -77.01782227 102.2409668 C-76.19329559 103.06899811 -75.36876892 103.89702942 -74.51925659 104.75015259 C-71.78998711 107.48823122 -69.05345874 110.21892179 -66.31640625 112.94921875 C-64.42043675 114.846535 -62.52476456 116.7441446 -60.62937927 118.64204407 C-56.65584366 122.6192165 -52.67811344 126.59215714 -48.69799805 130.56274414 C-44.09538905 135.15446165 -39.50003947 139.75334992 -34.90838009 144.35601491 C-30.9655071 148.30795992 -27.01875483 152.25599895 -23.068726 156.20079166 C-20.70964127 158.55675719 -18.35232827 160.91444357 -15.99771309 163.27487755 C-13.37379901 165.90385181 -10.74359182 168.52636088 -8.11157227 171.1472168 C-7.33068741 171.93215012 -6.54980255 172.71708344 -5.74525452 173.52580261 C-5.02881775 174.23659973 -4.31238098 174.94739685 -3.57423401 175.67973328 C-2.9527778 176.30043544 -2.33132158 176.9211376 -1.69103336 177.56064892 C0.05022916 179.22457343 0.05022916 179.22457343 3 180 C2.01 180.66 1.02 181.32 0 182 C-29.7 152.3 -59.4 122.6 -90 92 C-88.25307442 88.50614884 -87.08710715 86.83899574 -84.41867065 84.17816162 C-83.67547577 83.43221741 -82.93228088 82.68627319 -82.16656494 81.91772461 C-81.3508905 81.10924072 -80.53521606 80.30075684 -79.69482422 79.46777344 C-78.40691483 78.17942596 -78.40691483 78.17942596 -77.09298706 76.86505127 C-74.74138856 74.51460664 -72.38544268 72.16868541 -70.02745199 69.82466412 C-67.56283009 67.372552 -65.10387775 64.91476793 -62.64431763 62.45758057 C-57.98764113 57.8071181 -53.32589026 53.16177703 -48.66229355 48.51825547 C-43.35247752 43.23080081 -38.0483452 37.93766016 -32.74468207 32.64403486 C-21.83609884 21.75635189 -10.92040194 10.87582949 0 0 Z " fill="#612176" transform="translate(106,29)"/>
<path d="M0 0 C-1.32 4.29 -2.64 8.58 -4 13 C-5.32 12.67 -6.64 12.34 -8 12 C-8.061875 11.21625 -8.12375 10.4325 -8.1875 9.625 C-8.73615817 6.88426192 -8.73615817 6.88426192 -10.9375 5.6875 C-16.81048076 4.36907575 -21.9551436 3.99616141 -27.4375 6.6875 C-32.57447833 11.32330971 -33.61917158 15.37602677 -34.06640625 22.1484375 C-33.91378949 28.70198067 -31.66087454 34.33912546 -27 39 C-22.076305 42.05833038 -16.5911734 41.71896487 -11 41 C-7.72555631 39.68195605 -4.87807626 38.03500341 -2 36 C-0.68 37.65 0.64 39.3 2 41 C-6.34110642 48.90780219 -13.41384505 51.96974894 -25 52 C-31.94011611 51.49961545 -37.07500925 48.9035311 -42 44 C-47.64885964 36.58499566 -48.65688864 30.23163149 -48 21 C-46.10277227 12.58802707 -41.0402404 5.84782511 -34 1 C-24.0707902 -4.94651382 -10.2944513 -5.14722565 0 0 Z " fill="#010101" transform="translate(430,62)"/>
<path d="M0 0 C0.99 0.33 1.98 0.66 3 1 C2.67 2.32 2.34 3.64 2 5 C2.66 5 3.32 5 4 5 C4.268125 5.763125 4.53625 6.52625 4.8125 7.3125 C5.95800967 9.90496926 6.99711522 11.08815544 9 13 C9 13.66 9 14.32 9 15 C9.53625 15.226875 10.0725 15.45375 10.625 15.6875 C12.75116293 16.86248478 14.25498127 18.03384262 16.0625 19.625 C18.75923113 22.31436107 18.75923113 22.31436107 22 22 C21.34 20.02 20.68 18.04 20 16 C20.99 16 21.98 16 23 16 C22.01 14.68 21.02 13.36 20 12 C20.33 11.34 20.66 10.68 21 10 C38.16 27.16 55.32 44.32 73 62 C70 62 70 62 67 60 C66.38125 60.66 65.7625 61.32 65.125 62 C63 64 63 64 61 64 C60.773125 63.195625 60.54625 62.39125 60.3125 61.5625 C59.879375 60.716875 59.44625 59.87125 59 59 C56.45224694 58.10613836 56.45224694 58.10613836 54 58 C55.32 58.99 56.64 59.98 58 61 C57.67 62.32 57.34 63.64 57 65 C36.21 44.21 15.42 23.42 -6 2 C-4.68 1.67 -3.36 1.34 -2 1 C-1.34 0.67 -0.68 0.34 0 0 Z " fill="#752D8D" transform="translate(121,53)"/>
<path d="M0 0 C3.76488042 1.72154788 6.15063897 3.99234114 9 7 C8.67 7.99 8.34 8.98 8 10 C5.69 7.69 3.38 5.38 1 3 C-3.83581813 7.05982433 -8.40357912 11.26302947 -12.85327148 15.73974609 C-13.82040825 16.70666382 -13.82040825 16.70666382 -14.80708313 17.69311523 C-16.91413559 19.80085819 -19.01763474 21.91210893 -21.12109375 24.0234375 C-22.59060627 25.49481727 -24.06034135 26.9659748 -25.5302887 28.43692017 C-29.38099528 32.29142775 -33.22868807 36.14892999 -37.07574463 40.00708008 C-41.00895449 43.95055623 -44.9450298 47.89117004 -48.88085938 51.83203125 C-56.59003446 59.55190099 -64.29602623 67.27493989 -72 75 C-70.70005304 77.86356097 -69.32621927 79.92226181 -67.10202026 82.13848877 C-66.51028015 82.73297821 -65.91854004 83.32746765 -65.30886841 83.93997192 C-64.66150726 84.58014252 -64.01414612 85.22031311 -63.34716797 85.87988281 C-62.66412598 86.56321686 -61.98108398 87.2465509 -61.27734375 87.95059204 C-59.02033362 90.20620976 -56.7563237 92.45466222 -54.4921875 94.703125 C-52.92519314 96.26638892 -51.35864001 97.83009523 -49.79251099 99.39422607 C-45.67051858 103.50858445 -41.54255516 107.6169012 -37.41333008 111.72399902 C-33.20032416 115.91654166 -28.99297842 120.11475588 -24.78515625 124.3125 C-16.5289751 132.54723528 -8.26647643 140.77560065 0 149 C4.82531295 144.97120459 9.3892798 140.76343113 13.83740234 136.32373047 C14.48055389 135.68554382 15.12370544 135.04735718 15.78634644 134.38983154 C17.88895841 132.30169284 19.98777538 130.20979681 22.0859375 128.1171875 C22.80641895 127.39953342 23.52690041 126.68187935 24.26921463 125.94247818 C28.07264398 122.15397149 31.87324091 118.36265109 35.67138672 114.56884766 C39.59557633 110.65017099 43.52897733 106.74087685 47.46455956 102.83364677 C50.49266948 99.82412585 53.51408433 96.80795171 56.53367996 93.78989029 C57.98170717 92.34489231 59.43223814 90.90239887 60.88529587 89.46245956 C62.91030574 87.45445129 64.92569821 85.43725299 66.93896484 83.41748047 C67.541521 82.8241391 68.14407715 82.23079773 68.76489258 81.61947632 C71.54143908 78.81463999 73.27462665 76.88745611 74 73 C74.66 73.66 75.32 74.32 76 75 C74.67958555 77.92257439 73.25571935 79.99258209 70.98812866 82.25238037 C70.0626548 83.18197823 70.0626548 83.18197823 69.1184845 84.13035583 C68.44307114 84.79857864 67.76765778 85.46680145 67.07177734 86.15527344 C66.35947464 86.86786819 65.64717194 87.58046295 64.9132843 88.31465149 C62.5588785 90.66766451 60.19746875 93.0135151 57.8359375 95.359375 C56.20168245 96.98989975 54.56786854 98.62086676 52.93447876 100.2522583 C48.63493527 104.54416676 44.32941935 108.83003514 40.02264404 113.11468506 C35.62866977 117.48819822 31.24035397 121.86738079 26.8515625 126.24609375 C18.23991236 134.83629625 9.62194389 143.4201302 1 152 C-3.93805184 147.85881237 -8.58627298 143.55359152 -13.12866211 138.98486328 C-14.13968994 137.97405449 -14.13968994 137.97405449 -15.17114258 136.94282532 C-17.37559126 134.7376857 -19.57648684 132.52903641 -21.77734375 130.3203125 C-23.3141171 128.78167206 -24.85111288 127.24325375 -26.38832092 125.70504761 C-30.41657796 121.67298834 -34.4418217 117.63793405 -38.46643066 113.60223389 C-42.58061116 109.47778978 -46.69765465 105.35620569 -50.81445312 101.234375 C-58.87909568 93.15903561 -66.94055557 85.08052706 -75 77 C-73.17150962 73.04420326 -70.59415626 70.33775228 -67.51171875 67.31640625 C-66.97150589 66.77902328 -66.43129303 66.24164032 -65.87471008 65.68797302 C-64.15029294 63.97471454 -62.41906371 62.26853224 -60.6875 60.5625 C-59.53404448 59.41908438 -58.38104477 58.27520875 -57.22851562 57.13085938 C-55.09876287 55.01739279 -52.96635165 52.90668926 -50.83081055 50.79907227 C-48.21099951 48.20863384 -45.6030819 45.60724091 -43 43 C-41.49513454 41.49493708 -39.99015696 39.98998627 -38.48510742 38.48510742 C-37.62459274 37.62459274 -36.76407806 36.76407806 -35.87748718 35.87748718 C-23.91832479 23.91832479 -11.95916239 11.95916239 0 0 Z " fill="#57156C" transform="translate(106,44)"/>
<path d="M0 0 C0.99 0.33 1.98 0.66 3 1 C2.67 2.32 2.34 3.64 2 5 C2.66 5 3.32 5 4 5 C4.268125 5.763125 4.53625 6.52625 4.8125 7.3125 C5.95800967 9.90496926 6.99711522 11.08815544 9 13 C9 13.66 9 14.32 9 15 C9.53625 15.226875 10.0725 15.45375 10.625 15.6875 C12.75116293 16.86248478 14.25498127 18.03384262 16.0625 19.625 C18.75923113 22.31436107 18.75923113 22.31436107 22 22 C21.34 20.02 20.68 18.04 20 16 C20.99 16 21.98 16 23 16 C22.01 14.68 21.02 13.36 20 12 C20.33 11.34 20.66 10.68 21 10 C31.23 20.23 41.46 30.46 52 41 C48.47601214 41 47.98495633 40.44884893 45.4375 38.1875 C44.83808594 37.66542969 44.23867187 37.14335938 43.62109375 36.60546875 C42 35 42 35 40 32 C38.03871245 31.1762044 38.03871245 31.1762044 36 31 C35.01 31.495 35.01 31.495 34 32 C31.91664224 28.87496336 31 26.72863529 31 23 C29.68 22.67 28.36 22.34 27 22 C27.99 22.99 28.98 23.98 30 25 C27.23735711 25.59732819 24.83967231 26 22 26 C22.845625 26.66 23.69125 27.32 24.5625 28 C27.80380528 30.69347904 30.46031806 33.72768371 33.1875 36.9296875 C35.9705327 40.10858261 38.97268849 43.05550248 42 46 C41.67 46.99 41.34 47.98 41 49 C25.49 33.49 9.98 17.98 -6 2 C-4.68 1.67 -3.36 1.34 -2 1 C-1.34 0.67 -0.68 0.34 0 0 Z " fill="#712B89" transform="translate(121,53)"/>
<path d="M0 0 C2.4375 1.1875 2.4375 1.1875 5 3 C5.8125 5.6875 5.8125 5.6875 6 8 C6.99 8.33 7.98 8.66 9 9 C9 9.33 9 9.66 9 10 C9.598125 10.061875 10.19625 10.12375 10.8125 10.1875 C13 11 13 11 14.8125 13.25 C16.17213761 16.39863447 16.0111514 17.78270009 15 21 C15.99 20.67 16.98 20.34 18 20 C20.1875 20.9375 20.1875 20.9375 22 22 C22 22.66 22 23.32 22 24 C22.99 24.33 23.98 24.66 25 25 C24.67 25.99 24.34 26.98 24 28 C24.99 28.33 25.98 28.66 27 29 C26.625 30.9375 26.625 30.9375 26 33 C25.01 33.495 25.01 33.495 24 34 C19.46754392 30.94930841 16.39828367 28.30617393 13 24 C11.21069122 22.14402547 9.39685932 20.31146163 7.5625 18.5 C6.63566406 17.5821875 5.70882812 16.664375 4.75390625 15.71875 C2.92452072 13.91271833 1.09509393 12.10672844 -0.734375 10.30078125 C-2.70900668 8.29550874 -4.38352402 6.29709745 -6 4 C-3.69 4.33 -1.38 4.66 1 5 C1.10540926 2.78918149 1.10540926 2.78918149 0 0 Z " fill="#7A3094" transform="translate(147,73)"/>
<path d="M0 0 C2.875 0.3125 2.875 0.3125 6 1 C8 4 8 4 8 7 C10.49552484 6.21869929 10.49552484 6.21869929 13 5 C13.33 4.01 13.66 3.02 14 2 C19.78461538 5.32307692 19.78461538 5.32307692 20.875 8.75 C20.91625 9.4925 20.9575 10.235 21 11 C18.36 12.98 15.72 14.96 13 17 C10 15 10 15 9 14 C8.8453125 15.3921875 8.8453125 15.3921875 8.6875 16.8125 C7.99158743 20.03900374 7.70392137 21.19738575 5 23 C3.68 23 2.36 23 1 23 C0.67 22.01 0.34 21.02 0 20 C1.85505895 16.2898821 4.36113331 13.18483911 7 10 C6.67 9.34 6.34 8.68 6 8 C5.896875 7.34 5.79375 6.68 5.6875 6 C5.18288436 3.81112905 5.18288436 3.81112905 3 2.875 C2.34 2.58625 1.68 2.2975 1 2 C0.67 1.34 0.34 0.68 0 0 Z " fill="#792F93" transform="translate(174,110)"/>
<path d="M0 0 C0.99 0.33 1.98 0.66 3 1 C4.1875 3.5625 4.1875 3.5625 5 6 C6.32 5.01 7.64 4.02 9 3 C9.8353125 3.8971875 9.8353125 3.8971875 10.6875 4.8125 C12.90165118 7.0720622 12.90165118 7.0720622 15.5625 8.5 C18.24745838 10.15228208 19.5876947 11.17538941 21 14 C20.625 17.625 20.625 17.625 20 21 C20.33 21.66 20.66 22.32 21 23 C14.46077256 22.1020075 9.61254036 18.0951525 5.4140625 13.12109375 C4.22330369 11.45042306 3.10776902 9.72681641 2 8 C1.38125 7.278125 0.7625 6.55625 0.125 5.8125 C-1 4 -1 4 -0.6875 1.75 C-0.460625 1.1725 -0.23375 0.595 0 0 Z " fill="#792F93" transform="translate(123,53)"/>
<path d="M0 0 C3.76488042 1.72154788 6.15063897 3.99234114 9 7 C8.67 7.99 8.34 8.98 8 10 C5.69 7.69 3.38 5.38 1 3 C-3.82534897 7.05284264 -8.39059363 11.24595316 -12.83740234 15.70800781 C-13.80212967 16.67010666 -13.80212967 16.67010666 -14.78634644 17.65164185 C-16.88871428 19.74964624 -18.98744816 21.85124175 -21.0859375 23.953125 C-22.55312747 25.41964076 -24.02046581 26.8860081 -25.48794556 28.35223389 C-28.55072001 31.41353919 -31.61169103 34.47663327 -34.67138672 37.54101562 C-38.59899373 41.47434474 -42.53110701 45.40313363 -46.46455956 49.330616 C-49.48942495 52.3518761 -52.5119148 55.37550363 -55.53367996 58.3998642 C-56.98347133 59.85032362 -58.43400859 61.30003789 -59.88529587 62.74900055 C-61.90561003 64.76678603 -63.92270949 66.78773021 -65.93896484 68.80957031 C-66.84279907 69.71036819 -66.84279907 69.71036819 -67.76489258 70.62936401 C-70.74725212 73.53805331 -70.74725212 73.53805331 -73 77 C-73.66 77 -74.32 77 -75 77 C-73.39252639 72.97564114 -70.54841304 70.29291566 -67.51171875 67.31640625 C-66.97150589 66.77902328 -66.43129303 66.24164032 -65.87471008 65.68797302 C-64.15029294 63.97471454 -62.41906371 62.26853224 -60.6875 60.5625 C-59.53404448 59.41908438 -58.38104477 58.27520875 -57.22851562 57.13085938 C-55.09876287 55.01739279 -52.96635165 52.90668926 -50.83081055 50.79907227 C-48.21099951 48.20863384 -45.6030819 45.60724091 -43 43 C-41.49513454 41.49493708 -39.99015696 39.98998627 -38.48510742 38.48510742 C-37.62459274 37.62459274 -36.76407806 36.76407806 -35.87748718 35.87748718 C-23.91832479 23.91832479 -11.95916239 11.95916239 0 0 Z " fill="#63207B" transform="translate(106,44)"/>
<path d="M0 0 C0.66 0.66 1.32 1.32 2 2 C-0.94773418 4.99707817 -3.90191208 7.98760494 -6.86230469 10.97216797 C-7.86899728 11.98893399 -8.87388966 13.00748562 -9.87695312 14.02783203 C-11.31694371 15.49201218 -12.76323256 16.94970205 -14.2109375 18.40625 C-15.08024902 19.28603516 -15.94956055 20.16582031 -16.84521484 21.07226562 C-19 23 -19 23 -21 23 C-19.71744377 19.15233131 -17.70395995 17.94737832 -14.59375 15.5 C-12.73155509 13.98483163 -12.73155509 13.98483163 -12 11 C-12.66 11.66 -13.32 12.32 -14 13 C-16.61580479 12.6730244 -18.64078137 12.17960932 -21 11 C-19.43977363 7.17035345 -17.12444429 4.67809511 -14 2 C-12.68 2 -11.36 2 -10 2 C-10 3.98 -10 5.96 -10 8 C-7.55519921 7.81171228 -7.55519921 7.81171228 -5 7 C-3.53195637 5.14853436 -3.53195637 5.14853436 -3 3 C-3.33 2.34 -3.66 1.68 -4 1 C-2.125 0.375 -2.125 0.375 0 0 Z " fill="#762F91" transform="translate(129,185)"/>
<path d="M0 0 C3.2578125 -0.29296875 3.2578125 -0.29296875 7.125 -0.1875 C10.528125 -0.0946875 10.528125 -0.0946875 14 0 C14 8.91 14 17.82 14 27 C17.96 27 21.92 27 26 27 C26.33 26.34 26.66 25.68 27 25 C27 25.99 27 26.98 27 28 C22.05 28 17.1 28 12 28 C12 19.42 12 10.84 12 2 C8.04 2 4.08 2 0 2 C0 10.58 0 19.16 0 28 C-3.63 28 -7.26 28 -11 28 C-11 27.67 -11 27.34 -11 27 C-7.7 27 -4.4 27 -1 27 C-1.0407666 26.2886792 -1.0815332 25.5773584 -1.12353516 24.84448242 C-1.30177069 21.62599034 -1.46357255 18.40687701 -1.625 15.1875 C-1.72167969 13.50817383 -1.72167969 13.50817383 -1.8203125 11.79492188 C-1.89765625 10.18520508 -1.89765625 10.18520508 -1.9765625 8.54296875 C-2.02893066 7.55321045 -2.08129883 6.56345215 -2.13525391 5.54370117 C-2 3 -2 3 0 0 Z " fill="#69267E" transform="translate(114,126)"/>
<path d="M0 0 C3.63 0 7.26 0 11 0 C11 8.58 11 17.16 11 26 C14.96 26 18.92 26 23 26 C23 17.42 23 8.84 23 0 C23.66 0.33 24.32 0.66 25 1 C25.02886537 5.31248609 25.04675255 9.62494762 25.0625 13.9375 C25.07087891 15.16919922 25.07925781 16.40089844 25.08789062 17.66992188 C25.09272461 19.4246582 25.09272461 19.4246582 25.09765625 21.21484375 C25.10551147 22.84087524 25.10551147 22.84087524 25.11352539 24.49975586 C25 27 25 27 24 28 C21.46950598 28.07313567 18.96695163 28.09247527 16.4375 28.0625 C15.72658203 28.05798828 15.01566406 28.05347656 14.28320312 28.04882812 C12.52209987 28.03700864 10.76103964 28.01907263 9 28 C9.00523682 27.28344238 9.01047363 26.56688477 9.01586914 25.82861328 C9.03660667 22.59408438 9.04964984 19.35956944 9.0625 16.125 C9.07087891 14.99707031 9.07925781 13.86914062 9.08789062 12.70703125 C9.09111328 11.63066406 9.09433594 10.55429688 9.09765625 9.4453125 C9.10289307 8.45031738 9.10812988 7.45532227 9.11352539 6.43017578 C9.1639415 3.99039227 9.1639415 3.99039227 8 2 C6.10466658 1.53476937 6.10466658 1.53476937 3.9375 1.375 C2.638125 1.25125 1.33875 1.1275 0 1 C0 0.67 0 0.34 0 0 Z " fill="#681F7C" transform="translate(103,86)"/>
<path d="M0 0 C1.32 1.32 2.64 2.64 4 4 C-4.91 12.91 -13.82 21.82 -23 31 C-23.66 30.34 -24.32 29.68 -25 29 C-23.35 27.35 -21.7 25.7 -20 24 C-20.33 23.34 -20.66 22.68 -21 22 C-20.05125 21.7525 -19.1025 21.505 -18.125 21.25 C-14.91306809 20.3142923 -14.91306809 20.3142923 -13.625 17.875 C-13.41875 17.25625 -13.2125 16.6375 -13 16 C-13.66 16.33 -14.32 16.66 -15 17 C-14.67 15.35 -14.34 13.7 -14 12 C-13.34 12 -12.68 12 -12 12 C-12 10.35 -12 8.7 -12 7 C-10.02 7.99 -8.04 8.98 -6 10 C-5.34 9.34 -4.68 8.68 -4 8 C-4.33 7.34 -4.66 6.68 -5 6 C-3.02 5.67 -1.04 5.34 1 5 C0.67 3.35 0.34 1.7 0 0 Z " fill="#702988" transform="translate(194,116)"/>
<path d="M0 0 C0.66 0.66 1.32 1.32 2 2 C-8.23 12.23 -18.46 22.46 -29 33 C-29.33 32.34 -29.66 31.68 -30 31 C-29.01 29.68 -28.02 28.36 -27 27 C-27.33 26.34 -27.66 25.68 -28 25 C-26.88625 24.7525 -25.7725 24.505 -24.625 24.25 C-20.98954113 23.3754326 -20.98954113 23.3754326 -19.5 21 C-18.75595323 18.94576739 -18.75595323 18.94576739 -20 17 C-19.071875 16.7525 -18.14375 16.505 -17.1875 16.25 C-13.83541675 14.93545755 -12.8122197 14.02036616 -11 11 C-11.33 10.34 -11.66 9.68 -12 9 C-10.88625 8.7525 -9.7725 8.505 -8.625 8.25 C-4.98954113 7.3754326 -4.98954113 7.3754326 -3.5 5 C-2.75595323 2.94576739 -2.75595323 2.94576739 -4 1 C-2.125 0.375 -2.125 0.375 0 0 Z " fill="#6C2684" transform="translate(161,153)"/>
<path d="M0 0 C4.27180143 0.49256486 6.27419678 2.93014207 9.203125 5.91015625 C9.6857782 6.39705429 10.1684314 6.88395233 10.66571045 7.38560486 C12.2010085 8.9376545 13.72552925 10.49982136 15.25 12.0625 C16.2909722 13.11852357 17.3326314 14.17387038 18.375 15.22851562 C20.92467633 17.81121415 23.46479196 20.40308882 26 23 C21.92453987 23 20.19463638 21.44695552 17 19 C16.33333333 17.66666667 15.66666667 16.33333333 15 15 C13.02053408 13.63636792 11.0180755 12.30581356 9 11 C7.3142876 9.35259924 5.6436814 7.68933922 4 6 C3.34 5.67 2.68 5.34 2 5 C1.27840576 3.35636866 0.60648579 1.68949614 0 0 Z " fill="#67267C" transform="translate(107,31)"/>
<path d="M0 0 C6.6651278 0.76905321 11.12702471 7.16225446 15.1875 11.9296875 C17.9705327 15.10858261 20.97268849 18.05550248 24 21 C23.67 21.99 23.34 22.98 23 24 C19.72128157 20.74592504 16.44580355 17.48863647 13.17333984 14.22827148 C12.05867476 13.11864792 10.94311557 12.0099218 9.82666016 10.90209961 C8.22585196 9.31336495 6.62824388 7.72147383 5.03125 6.12890625 C4.52815308 5.63097061 4.02505615 5.13303497 3.50671387 4.62001038 C2.31867898 3.43217036 1.15643985 2.21862122 0 1 C0 0.67 0 0.34 0 0 Z " fill="#622675" transform="translate(139,78)"/>
<path d="M0 0 C8.20727941 1.74543951 14.10957695 6.34518903 19 13 C15.00499382 11.6302836 12.19990508 9.74277578 9 7 C9 7.66 9 8.32 9 9 C8.01 9.33 7.02 9.66 6 10 C4 8 4 8 3.5625 5.9375 C3.2840625 4.9784375 3.2840625 4.9784375 3 4 C2.01 3.67 1.02 3.34 0 3 C0 2.01 0 1.02 0 0 Z " fill="#702C88" transform="translate(122,50)"/>
<path d="M0 0 C3.63 0 7.26 0 11 0 C11 8.58 11 17.16 11 26 C14.96 26 18.92 26 23 26 C23 26.33 23 26.66 23 27 C18.38 27.33 13.76 27.66 9 28 C9.01160156 26.29070312 9.02320312 24.58140625 9.03515625 22.8203125 C9.04453343 20.58854275 9.05363371 18.35677183 9.0625 16.125 C9.07087891 14.99707031 9.07925781 13.86914062 9.08789062 12.70703125 C9.09111328 11.63066406 9.09433594 10.55429688 9.09765625 9.4453125 C9.10289307 8.45031738 9.10812988 7.45532227 9.11352539 6.43017578 C9.1639415 3.99039227 9.1639415 3.99039227 8 2 C6.10466658 1.53476937 6.10466658 1.53476937 3.9375 1.375 C2.638125 1.25125 1.33875 1.1275 0 1 C0 0.67 0 0.34 0 0 Z " fill="#6D2E81" transform="translate(103,86)"/>
<path d="M0 0 C0.66 0.66 1.32 1.32 2 2 C-0.94773418 4.99707817 -3.90191208 7.98760494 -6.86230469 10.97216797 C-7.86899728 11.98893399 -8.87388966 13.00748562 -9.87695312 14.02783203 C-11.31694371 15.49201218 -12.76323256 16.94970205 -14.2109375 18.40625 C-15.08024902 19.28603516 -15.94956055 20.16582031 -16.84521484 21.07226562 C-19 23 -19 23 -21 23 C-19.90777974 19.72333923 -19.17281146 19.08390769 -16.5625 17 C-14.11225368 15.03571068 -12.78619422 13.67929132 -11 11 C-10.34 11 -9.68 11 -9 11 C-8.34 9.68 -7.68 8.36 -7 7 C-6.34 7 -5.68 7 -5 7 C-3.89163577 5.11683841 -3.89163577 5.11683841 -3 3 C-3.33 2.34 -3.66 1.68 -4 1 C-2.125 0.375 -2.125 0.375 0 0 Z " fill="#6B2583" transform="translate(129,185)"/>
<path d="M0 0 C2.31 0 4.62 0 7 0 C8.31223496 3.93670488 7.24296256 6.12488144 6 10 C4.35 10 2.7 10 1 10 C-0.1577506 6.52674819 -0.06866652 3.63932552 0 0 Z " fill="#0B0B0B" transform="translate(513,170)"/>
<path d="M0 0 C0.78375 0.185625 1.5675 0.37125 2.375 0.5625 C4.97089775 1.25962266 4.97089775 1.25962266 7 0 C7 2.97 7 5.94 7 9 C2.25 10.125 2.25 10.125 0 9 C0 6.03 0 3.06 0 0 Z " fill="#090909" transform="translate(631,170)"/>
<path d="M0 0 C1.98 0.99 1.98 0.99 4 2 C4.66 1.34 5.32 0.68 6 0 C7 1 7 1 7.09765625 2.84765625 C7.06510417 4.8984375 7.03255208 6.94921875 7 9 C5.68 9 4.36 9 3 9 C2.01 9.33 1.02 9.66 0 10 C0 6.7 0 3.4 0 0 Z " fill="#0D0D0F" transform="translate(317,170)"/>
<path d="M0 0 C1.32 0.33 2.64 0.66 4 1 C4.66 0.67 5.32 0.34 6 0 C6 2.97 6 5.94 6 9 C1.125 10 1.125 10 0 10 C0 6.7 0 3.4 0 0 Z " fill="#0C0C0C" transform="translate(422,170)"/>
<path d="M0 0 C1.17219543 0.78345715 2.33763668 1.57702836 3.5 2.375 C4.47453125 3.03628906 4.47453125 3.03628906 5.46875 3.7109375 C5.9740625 4.13632813 6.479375 4.56171875 7 5 C7 5.66 7 6.32 7 7 C7.66 7 8.32 7 9 7 C10.35386936 8.65002828 11.68678142 10.3174387 13 12 C13.66 12.33 14.32 12.66 15 13 C14.67 14.32 14.34 15.64 14 17 C9.05 12.05 4.1 7.1 -1 2 C-0.67 1.34 -0.34 0.68 0 0 Z " fill="#63267A" transform="translate(164,101)"/>
<path d="M0 0 C1.65 0.33 3.3 0.66 5 1 C5 3.64 5 6.28 5 9 C3.35 9.33 1.7 9.66 0 10 C-1.125 8.375 -1.125 8.375 -2 6 C-1.125 2.75 -1.125 2.75 0 0 Z M1 2 C1 2.66 1 3.32 1 4 C1.66 4 2.32 4 3 4 C3 3.34 3 2.68 3 2 C2.34 2 1.68 2 1 2 Z M0 6 C0.33 6.66 0.66 7.32 1 8 C1.66 8 2.32 8 3 8 C3 7.34 3 6.68 3 6 C2.01 6 1.02 6 0 6 Z " fill="#0C0B10" transform="translate(240,170)"/>
<path d="M0 0 C0 2.64 0 5.28 0 8 C-1.65 8.33 -3.3 8.66 -5 9 C-6.57035335 6.50590939 -7.0274945 5.29556584 -6.75 2.3125 C-6.5025 1.549375 -6.255 0.78625 -6 0 C-3.50907189 -1.24546405 -2.58919267 -0.7767578 0 0 Z M-4 1 C-4 1.66 -4 2.32 -4 3 C-3.34 3 -2.68 3 -2 3 C-2 2.34 -2 1.68 -2 1 C-2.66 1 -3.32 1 -4 1 Z M-5 5 C-4.67 5.66 -4.34 6.32 -4 7 C-3.34 7 -2.68 7 -2 7 C-2 6.34 -2 5.68 -2 5 C-2.99 5 -3.98 5 -5 5 Z " fill="#070707" transform="translate(546,171)"/>
<path d="M0 0 C2.97 0.495 2.97 0.495 6 1 C6 3.64 6 6.28 6 9 C5.01 9.495 5.01 9.495 4 10 C4 8.68 4 7.36 4 6 C3.34 6 2.68 6 2 6 C1.67 7.32 1.34 8.64 1 10 C0.67 10 0.34 10 0 10 C0 6.7 0 3.4 0 0 Z M2 2 C2 2.66 2 3.32 2 4 C2.99 3.67 3.98 3.34 5 3 C4.01 2.67 3.02 2.34 2 2 Z " fill="#0C0C0E" transform="translate(278,170)"/>
<path d="M0 0 C2.97 0.495 2.97 0.495 6 1 C6 3.64 6 6.28 6 9 C5.01 9.495 5.01 9.495 4 10 C4 8.68 4 7.36 4 6 C3.34 6 2.68 6 2 6 C1.67 7.32 1.34 8.64 1 10 C0.67 10 0.34 10 0 10 C0 6.7 0 3.4 0 0 Z M2 2 C2 2.66 2 3.32 2 4 C2.66 4 3.32 4 4 4 C4 3.34 4 2.68 4 2 C3.34 2 2.68 2 2 2 Z " fill="#0E0E0E" transform="translate(383,170)"/>
<path d="M0 0 C1.2065625 0.0309375 1.2065625 0.0309375 2.4375 0.0625 C2.4375 0.7225 2.4375 1.3825 2.4375 2.0625 C1.1175 2.0625 -0.2025 2.0625 -1.5625 2.0625 C-1.5625 2.7225 -1.5625 3.3825 -1.5625 4.0625 C-0.2425 4.0625 1.0775 4.0625 2.4375 4.0625 C2.4375 4.7225 2.4375 5.3825 2.4375 6.0625 C1.1175 6.0625 -0.2025 6.0625 -1.5625 6.0625 C-1.5625 6.7225 -1.5625 7.3825 -1.5625 8.0625 C-0.2425 8.3925 1.0775 8.7225 2.4375 9.0625 C1.4375 10.0625 1.4375 10.0625 -1.125 10.125 C-1.929375 10.104375 -2.73375 10.08375 -3.5625 10.0625 C-3.58939216 8.58343108 -3.60884621 7.10422517 -3.625 5.625 C-3.63660156 4.80128906 -3.64820313 3.97757813 -3.66015625 3.12890625 C-3.51340586 0.02366796 -3.12550237 0.07623177 0 0 Z " fill="#0D0E10" transform="translate(451.5625,169.9375)"/>
<path d="M0 0 C1.2065625 0.0309375 1.2065625 0.0309375 2.4375 0.0625 C2.4375 0.7225 2.4375 1.3825 2.4375 2.0625 C1.1175 2.0625 -0.2025 2.0625 -1.5625 2.0625 C-1.5625 2.7225 -1.5625 3.3825 -1.5625 4.0625 C-0.2425 4.0625 1.0775 4.0625 2.4375 4.0625 C2.4375 4.7225 2.4375 5.3825 2.4375 6.0625 C1.1175 6.0625 -0.2025 6.0625 -1.5625 6.0625 C-1.5625 6.7225 -1.5625 7.3825 -1.5625 8.0625 C-0.2425 8.3925 1.0775 8.7225 2.4375 9.0625 C1.4375 10.0625 1.4375 10.0625 -1.125 10.125 C-1.929375 10.104375 -2.73375 10.08375 -3.5625 10.0625 C-3.58939216 8.58343108 -3.60884621 7.10422517 -3.625 5.625 C-3.63660156 4.80128906 -3.64820313 3.97757813 -3.66015625 3.12890625 C-3.51340586 0.02366796 -3.12550237 0.07623177 0 0 Z " fill="#0B0B0E" transform="translate(307.5625,169.9375)"/>
<path d="M0 0 C3.24271506 0.5590888 4.93057424 1.4132178 7 4 C7 4.66 7 5.32 7 6 C7.556875 6.20625 8.11375 6.4125 8.6875 6.625 C11.92501302 8.55000774 13.68231141 11.03850902 16 14 C15.67 14.66 15.34 15.32 15 16 C12.49599357 13.5248518 9.99748094 11.04423106 7.5 8.5625 C6.78457031 7.85544922 6.06914062 7.14839844 5.33203125 6.41992188 C4.65527344 5.74638672 3.97851562 5.07285156 3.28125 4.37890625 C2.65283203 3.7557251 2.02441406 3.13254395 1.37695312 2.49047852 C0 1 0 1 0 0 Z " fill="#602774" transform="translate(123,62)"/>
<path d="M0 0 C2.125 0.375 2.125 0.375 4 1 C4.79953138 4.28696233 5.09658936 5.71023192 4 9 C2.0625 9.8125 2.0625 9.8125 0 10 C-2 8 -2 8 -2.25 5 C-2 2 -2 2 0 0 Z M0 2 C0 2.66 0 3.32 0 4 C0.99 3.67 1.98 3.34 3 3 C2.01 2.67 1.02 2.34 0 2 Z M0 6 C0 6.66 0 7.32 0 8 C0.99 8 1.98 8 3 8 C3 7.34 3 6.68 3 6 C2.01 6 1.02 6 0 6 Z " fill="#090909" transform="translate(607,170)"/>
<path d="M0 0 C1.67542976 0.28604898 3.34385343 0.61781233 5 1 C6.15941038 4.47823115 5.70820884 6.45895578 5 10 C4.67 8.68 4.34 7.36 4 6 C3.01 6 2.02 6 1 6 C0.67 7.32 0.34 8.64 0 10 C-0.33 10 -0.66 10 -1 10 C-1.02689216 8.52093108 -1.04634621 7.04172517 -1.0625 5.5625 C-1.07410156 4.73878906 -1.08570313 3.91507813 -1.09765625 3.06640625 C-1 1 -1 1 0 0 Z M1 2 C1 2.66 1 3.32 1 4 C1.99 3.67 2.98 3.34 4 3 C3.01 2.67 2.02 2.34 1 2 Z " fill="#08090A" transform="translate(462,170)"/>
<path d="M0 0 C3.69230769 0.69230769 3.69230769 0.69230769 5 2 C5.04080783 3.99958364 5.04254356 6.00045254 5 8 C3.35 8.66 1.7 9.32 0 10 C-2 7 -2 7 -1.6875 3.875 C-1 1 -1 1 0 0 Z M1 2 C0.67 3.65 0.34 5.3 0 7 C0.99 7 1.98 7 3 7 C2.67 5.35 2.34 3.7 2 2 C1.67 2 1.34 2 1 2 Z " fill="#070708" transform="translate(358,170)"/>
<path d="M0 0 C0.99 0.495 0.99 0.495 2 1 C2 1.99 2 2.98 2 4 C2.66 4 3.32 4 4 4 C4.33 2.68 4.66 1.36 5 0 C5.33 0 5.66 0 6 0 C6 2.97 6 5.94 6 9 C5.01 9.495 5.01 9.495 4 10 C4 8.68 4 7.36 4 6 C3.34 6 2.68 6 2 6 C1.67 7.32 1.34 8.64 1 10 C0.67 10 0.34 10 0 10 C0 6.7 0 3.4 0 0 Z " fill="#0F1012" transform="translate(252,170)"/>
<path d="M0 0 C0.99 0.495 0.99 0.495 2 1 C2 1.99 2 2.98 2 4 C2.66 4 3.32 4 4 4 C4.33 2.68 4.66 1.36 5 0 C6 1 6 1 6.09765625 2.84765625 C6.06510417 4.8984375 6.03255208 6.94921875 6 9 C5.01 9.495 5.01 9.495 4 10 C4 8.68 4 7.36 4 6 C3.34 6 2.68 6 2 6 C1.67 7.32 1.34 8.64 1 10 C0.67 10 0.34 10 0 10 C0 6.7 0 3.4 0 0 Z " fill="#0B0B0B" transform="translate(671,170)"/>
<path d="M0 0 C1.65 0 3.3 0 5 0 C5.33 0.66 5.66 1.32 6 2 C4.68 2 3.36 2 2 2 C2 2.66 2 3.32 2 4 C2.99 4 3.98 4 5 4 C5 4.66 5 5.32 5 6 C4.01 6 3.02 6 2 6 C2 6.66 2 7.32 2 8 C3.32 8.33 4.64 8.66 6 9 C5.67 9.33 5.34 9.66 5 10 C3.35 10 1.7 10 0 10 C0 6.7 0 3.4 0 0 Z " fill="#0C0C0C" transform="translate(501,170)"/>
<path d="M0 0 C1.485 0.99 1.485 0.99 3 2 C3.99 1.34 4.98 0.68 6 0 C5.814375 0.9075 5.62875 1.815 5.4375 2.75 C5.04265379 5.68314324 5.05308428 7.2644657 6 10 C5.01 9.34 4.02 8.68 3 8 C2.01 8.66 1.02 9.32 0 10 C0 6.7 0 3.4 0 0 Z " fill="#0A0A0A" transform="translate(553,170)"/>
<path d="M0 0 C0.99 0.33 1.98 0.66 3 1 C3.73046875 2.84765625 3.73046875 2.84765625 4.1875 5.0625 C4.34605469 5.79597656 4.50460937 6.52945313 4.66796875 7.28515625 C4.83232422 8.13400391 4.83232422 8.13400391 5 9 C4.01 9.495 4.01 9.495 3 10 C2.67 9.34 2.34 8.68 2 8 C0.35 8.66 -1.3 9.32 -3 10 C-2.01 6.7 -1.02 3.4 0 0 Z M1 4 C0.67 4.66 0.34 5.32 0 6 C0.66 6 1.32 6 2 6 C1.67 5.34 1.34 4.68 1 4 Z " fill="#08080A" transform="translate(267,170)"/>
<path d="M0 0 C2.97 0.495 2.97 0.495 6 1 C6.33 1.99 6.66 2.98 7 4 C6.34 4.66 5.68 5.32 5 6 C4.01 6 3.02 6 2 6 C1.67 7.32 1.34 8.64 1 10 C0.67 10 0.34 10 0 10 C0 6.7 0 3.4 0 0 Z M2 2 C2 2.66 2 3.32 2 4 C2.99 3.67 3.98 3.34 5 3 C4.01 2.67 3.02 2.34 2 2 Z " fill="#0C0C0E" transform="translate(291,170)"/>
<path d="M0 0 C1.98 0 3.96 0 6 0 C6 0.66 6 1.32 6 2 C5.34 2 4.68 2 4 2 C4 3.98 4 5.96 4 8 C4.66 8.33 5.32 8.66 6 9 C5 10 5 10 2.4375 10.0625 C1.633125 10.041875 0.82875 10.02125 0 10 C0 9.34 0 8.68 0 8 C0.66 8 1.32 8 2 8 C2 6.02 2 4.04 2 2 C1.34 2 0.68 2 0 2 C0 1.34 0 0.68 0 0 Z " fill="#0A0A0A" transform="translate(710,170)"/>
<path d="M0 0 C1.98 0 3.96 0 6 0 C6 0.66 6 1.32 6 2 C5.34 2 4.68 2 4 2 C4 3.98 4 5.96 4 8 C4.66 8.33 5.32 8.66 6 9 C5 10 5 10 2.4375 10.0625 C1.633125 10.041875 0.82875 10.02125 0 10 C0 9.34 0 8.68 0 8 C0.66 8 1.32 8 2 8 C2 6.02 2 4.04 2 2 C1.34 2 0.68 2 0 2 C0 1.34 0 0.68 0 0 Z " fill="#0C0C0C" transform="translate(409,170)"/>
<path d="M0 0 C1.98 0 3.96 0 6 0 C6 0.66 6 1.32 6 2 C5.34 2 4.68 2 4 2 C4 3.98 4 5.96 4 8 C4.66 8.33 5.32 8.66 6 9 C5 10 5 10 2.4375 10.0625 C1.633125 10.041875 0.82875 10.02125 0 10 C0 9.34 0 8.68 0 8 C0.66 8 1.32 8 2 8 C2 6.02 2 4.04 2 2 C1.34 2 0.68 2 0 2 C0 1.34 0 0.68 0 0 Z " fill="#080808" transform="translate(566,170)"/>
<path d="M0 0 C0.99 0.33 1.98 0.66 3 1 C3.73046875 2.84765625 3.73046875 2.84765625 4.1875 5.0625 C4.34605469 5.79597656 4.50460937 6.52945313 4.66796875 7.28515625 C4.83232422 8.13400391 4.83232422 8.13400391 5 9 C4.01 9.495 4.01 9.495 3 10 C2.67 9.34 2.34 8.68 2 8 C0.68 8.33 -0.64 8.66 -2 9 C-1.125 2.25 -1.125 2.25 0 0 Z M1 4 C0.67 4.66 0.34 5.32 0 6 C0.66 6 1.32 6 2 6 C1.67 5.34 1.34 4.68 1 4 Z " fill="#090909" transform="translate(699,170)"/>
<path d="M0 0 C1.65 0 3.3 0 5 0 C5.33 0.66 5.66 1.32 6 2 C5.34 2 4.68 2 4 2 C4 3.98 4 5.96 4 8 C4.66 8.33 5.32 8.66 6 9 C5 10 5 10 2.4375 10.0625 C1.633125 10.041875 0.82875 10.02125 0 10 C0 9.34 0 8.68 0 8 C0.66 8 1.32 8 2 8 C2 6.02 2 4.04 2 2 C1.34 2 0.68 2 0 2 C0 1.34 0 0.68 0 0 Z " fill="#0D0D0D" transform="translate(645,170)"/>
<path d="M0 0 C1.65 0 3.3 0 5 0 C5.33 0.66 5.66 1.32 6 2 C5.34 2 4.68 2 4 2 C4 3.98 4 5.96 4 8 C4.66 8.33 5.32 8.66 6 9 C5 10 5 10 2.4375 10.0625 C1.633125 10.041875 0.82875 10.02125 0 10 C0 9.34 0 8.68 0 8 C0.66 8 1.32 8 2 8 C2 6.02 2 4.04 2 2 C1.34 2 0.68 2 0 2 C0 1.34 0 0.68 0 0 Z " fill="#0A0A0A" transform="translate(488,170)"/>
<path d="M0 0 C2 1 2 1 4 4 C4.66 2.68 5.32 1.36 6 0 C6.6875 1.625 6.6875 1.625 7 4 C5.5625 7.25 5.5625 7.25 4 10 C3.34 10 2.68 10 2 10 C0.68373308 6.38026598 0 3.90432869 0 0 Z " fill="#090A0C" transform="translate(474,170)"/>
<path d="M0 0 C1.32 1.32 2.64 2.64 4 4 C1.03 6.97 -1.94 9.94 -5 13 C-5.33 12.01 -5.66 11.02 -6 10 C-5.34 9.34 -4.68 8.68 -4 8 C-4.33 7.34 -4.66 6.68 -5 6 C-3.02 5.67 -1.04 5.34 1 5 C0.67 3.35 0.34 1.7 0 0 Z " fill="#682680" transform="translate(194,116)"/>
<path d="M0 0 C5.66129431 4.69766975 10.85228904 9.74723372 16 15 C11.38195425 15 9.20939329 12.10783021 6 9 C0 2.67248908 0 2.67248908 0 0 Z " fill="#622775" transform="translate(157,79)"/>
<path d="M0 0 C1.32 0.99 2.64 1.98 4 3 C4.99 2.01 5.98 1.02 7 0 C6.71872579 1.48117801 6.42466268 2.95993249 6.125 4.4375 C5.96257812 5.26121094 5.80015625 6.08492187 5.6328125 6.93359375 C5.42398437 7.61550781 5.21515625 8.29742187 5 9 C4.01 9.495 4.01 9.495 3 10 C0 3.375 0 3.375 0 0 Z " fill="#040404" transform="translate(343,170)"/>
<path d="M0 0 C0.33 0 0.66 0 1 0 C1.12375 1.134375 1.2475 2.26875 1.375 3.4375 C1.58125 4.613125 1.7875 5.78875 2 7 C2.66 7.33 3.32 7.66 4 8 C4 5.36 4 2.72 4 0 C4.66 0.33 5.32 0.66 6 1 C6 3.31 6 5.62 6 8 C4.125 9.0625 4.125 9.0625 2 10 C1.34 9.67 0.68 9.34 0 9 C0 6.03 0 3.06 0 0 Z " fill="#090909" transform="translate(370,170)"/>
<path d="M0 0 C1.14926266 0.95421808 2.29430541 1.91352045 3.4375 2.875 C4.07558594 3.40867187 4.71367187 3.94234375 5.37109375 4.4921875 C7 6 7 6 8 8 C7.030625 8.12375 6.06125 8.2475 5.0625 8.375 C4.051875 8.58125 3.04125 8.7875 2 9 C1.67 9.66 1.34 10.32 1 11 C0.67 9.35 0.34 7.7 0 6 C0.99 6 1.98 6 3 6 C2.2575 5.071875 2.2575 5.071875 1.5 4.125 C0 2 0 2 0 0 Z " fill="#6C2A80" transform="translate(141,63)"/>
<path d="M0 0 C0.33 0 0.66 0 1 0 C1 2.64 1 5.28 1 8 C2.65 8 4.3 8 6 8 C5.67 8.66 5.34 9.32 5 10 C3.02 10 1.04 10 -1 10 C-1.02689216 8.52093108 -1.04634621 7.04172517 -1.0625 5.5625 C-1.07410156 4.73878906 -1.08570313 3.91507813 -1.09765625 3.06640625 C-1 1 -1 1 0 0 Z " fill="#070707" transform="translate(593,170)"/>
<path d="M0 0 C1.4540625 0.0309375 1.4540625 0.0309375 2.9375 0.0625 C2.9375 0.7225 2.9375 1.3825 2.9375 2.0625 C2.2775 2.0625 1.6175 2.0625 0.9375 2.0625 C0.9375 4.3725 0.9375 6.6825 0.9375 9.0625 C-0.0525 9.5575 -0.0525 9.5575 -1.0625 10.0625 C-1.0625 7.4225 -1.0625 4.7825 -1.0625 2.0625 C-2.0525 1.7325 -3.0425 1.4025 -4.0625 1.0625 C-3.0625 0.0625 -3.0625 0.0625 0 0 Z " fill="#0A0A0A" transform="translate(661.0625,169.9375)"/>
<path d="M0 0 C1.98 0 3.96 0 6 0 C6.33 0.66 6.66 1.32 7 2 C6.01 2 5.02 2 4 2 C4 4.31 4 6.62 4 9 C3.01 9.495 3.01 9.495 2 10 C2 7.36 2 4.72 2 2 C1.34 2 0.68 2 0 2 C0 1.34 0 0.68 0 0 Z " fill="#0F100F" transform="translate(435,170)"/>
<path d="M0 0 C4.88049925 3.9419417 9.0580583 8.11950075 13 13 C7.73040725 10.51885266 3.10406122 7.00098752 0 2 C0 1.34 0 0.68 0 0 Z " fill="#612774" transform="translate(181,103)"/>
<path d="M0 0 C0.66 0 1.32 0 2 0 C2 2.31 2 4.62 2 7 C3.32 7 4.64 7 6 7 C6 7.66 6 8.32 6 9 C4.02 9 2.04 9 0 9 C0 6.03 0 3.06 0 0 Z " fill="#080808" transform="translate(579,171)"/>
<path d="M0 0 C0.66 0.33 1.32 0.66 2 1 C2 3.64 2 6.28 2 9 C0.68 9 -0.64 9 -2 9 C-1.34 8.67 -0.68 8.34 0 8 C0 5.36 0 2.72 0 0 Z " fill="#060606" transform="translate(322,170)"/>
<path d="M0 0 C3 1 3 1 4 3 C1.525 4.485 1.525 4.485 -1 6 C-1.99 5.34 -2.98 4.68 -4 4 C-2.68 2.68 -1.36 1.36 0 0 Z " fill="#7D3198" transform="translate(188,121)"/>
<path d="M0 0 C0.66 0.66 1.32 1.32 2 2 C0.4169423 6.2742558 -2.50568404 8.26531794 -6 11 C-5.01469421 8.80201017 -4.18695263 7.17947452 -2.4375 5.5 C-0.73683989 3.72539815 -0.41205818 2.38993744 0 0 Z " fill="#59196E" transform="translate(180,117)"/>
<path d="M0 0 C3.25543229 0.34879632 4.01873107 1.02133261 6.25 3.5625 C6.8275 4.366875 7.405 5.17125 8 6 C7.67 6.66 7.34 7.32 7 8 C5.83035398 6.8572081 4.66435444 5.71068285 3.5 4.5625 C2.8503125 3.92441406 2.200625 3.28632812 1.53125 2.62890625 C0 1 0 1 0 0 Z " fill="#602775" transform="translate(115,54)"/>
<path d="M0 0 C1.32 0.33 2.64 0.66 4 1 C-1.75 6 -1.75 6 -4 6 C-3.67 5.01 -3.34 4.02 -3 3 C-2.34 3 -1.68 3 -1 3 C-0.67 2.01 -0.34 1.02 0 0 Z " fill="#75348E" transform="translate(156,155)"/>
<path d="" fill="#000000" transform="translate(0,0)"/>
</svg>
